<svg xmlns="http://www.w3.org/2000/svg" width="24" height="24" viewBox="0 0 24 24"><g clip-path="url(#clip0_23_287)"><path fill="#4285F4" d="M24.255 12.27C24.255 11.48 24.1835 10.73 24.0609 10H12.5155V14.51H19.126C18.8297 15.99 17.9613 17.24 16.6739 18.09V21.09H20.6177C22.9268 19 24.255 15.92 24.255 12.27Z"/><path fill="#34A853" d="M12.5156 24C15.8259 24 18.5947 22.92 20.6177 21.09L16.6739 18.09C15.5705 18.81 14.1707 19.25 12.5156 19.25C9.3176 19.25 6.61007 17.14 5.63944 14.29H1.57303V17.38C3.5858 21.3 7.72373 24 12.5156 24Z"/><path fill="#FBBC05" d="M5.63942 14.29C5.384 13.57 5.25117 12.8 5.25117 12C5.25117 11.2 5.39421 10.43 5.63942 9.71V6.62H1.57301C0.735208 8.24 0.255005 10.06 0.255005 12C0.255005 13.94 0.735208 15.76 1.57301 17.38L5.63942 14.29Z"/><path fill="#EA4335" d="M12.5156 4.75C14.324 4.75 15.9383 5.36 17.2154 6.55L20.7097 3.13C18.5947 1.19 15.8259 0 12.5156 0C7.72373 0 3.5858 2.7 1.57303 6.62L5.63944 9.71C6.61007 6.86 9.3176 4.75 12.5156 4.75Z"/></g><defs><clipPath id="clip0_23_287"><rect width="24" height="24" fill="#fff"/></clipPath></defs></svg>
